<svg width="32" height="32" viewBox="0 0 32 32" fill="none" xmlns="http://www.w3.org/2000/svg">
<g clip-path="url(#clip0_229_333)">
<rect width="32" height="32" fill="white" fill-opacity="0.01"/>
<path d="M11.5006 17.9986C11.5006 18.5506 11.0526 18.9986 10.5006 18.9986C9.94862 18.9986 9.50062 18.5506 9.50062 17.9986C9.50062 17.4466 9.94862 16.9986 10.5006 16.9986C11.0526 16.9986 11.5006 17.4466 11.5006 17.9986ZM14.5006 16.9986C13.9486 16.9986 13.5006 17.4466 13.5006 17.9986C13.5006 18.5506 13.9486 18.9986 14.5006 18.9986C15.0526 18.9986 15.5006 18.5506 15.5006 17.9986C15.5006 17.4466 15.0526 16.9986 14.5006 16.9986ZM6.50063 16.9986C5.94863 16.9986 5.50063 17.4466 5.50063 17.9986C5.50063 18.5506 5.94863 18.9986 6.50063 18.9986C7.05263 18.9986 7.50063 18.5506 7.50063 17.9986C7.50063 17.4466 7.05263 16.9986 6.50063 16.9986ZM23.0006 6.00063C22.4486 6.00063 22.0006 6.44863 22.0006 7.00063C22.0006 7.55263 22.4486 8.00063 23.0006 8.00063C23.5526 8.00063 24.0006 7.55263 24.0006 7.00063C24.0006 6.44863 23.5526 6.00063 23.0006 6.00063ZM27.0006 6.00063C26.4486 6.00063 26.0006 6.44863 26.0006 7.00063C26.0006 7.55263 26.4486 8.00063 27.0006 8.00063C27.5526 8.00063 28.0006 7.55263 28.0006 7.00063C28.0006 6.44863 27.5526 6.00063 27.0006 6.00063ZM19.0006 6.00063C18.4486 6.00063 18.0006 6.44863 18.0006 7.00063C18.0006 7.55263 18.4486 8.00063 19.0006 8.00063C19.5526 8.00063 20.0006 7.55263 20.0006 7.00063C20.0006 6.44863 19.5526 6.00063 19.0006 6.00063ZM11.2996 30.8006L7.29962 24.8016C7.23362 24.7016 7.12063 24.6416 7.00063 24.6416H3.00063C2.09663 24.6416 1.36063 23.9066 1.36063 23.0016V13.0006C1.36063 12.0966 2.09663 11.3606 3.00063 11.3606H18.0006C18.9046 11.3606 19.6406 12.0966 19.6406 13.0006V23.0016C19.6406 23.9056 18.9056 24.6416 18.0006 24.6416H11.0006V25.3626H18.0006C19.3026 25.3626 20.3606 24.3036 20.3606 23.0026V13.3606H23.0006V12.6406H20.3336C20.1596 11.5096 19.1796 10.6406 18.0006 10.6406H15.3606V3.00063C15.3606 2.09663 16.0966 1.36063 17.0006 1.36063H29.0006C29.9046 1.36063 30.6406 2.09663 30.6406 3.00063V11.0006C30.6406 11.9046 29.9056 12.6406 29.0006 12.6406H26.0006C25.8636 12.6406 25.7396 12.7176 25.6786 12.8396L23.6786 16.8396L24.3236 17.1616L26.2236 13.3606H29.0006C30.3026 13.3606 31.3606 12.3016 31.3606 11.0006V3.00063C31.3606 1.69963 30.3016 0.640625 29.0006 0.640625H17.0006C15.6996 0.640625 14.6406 1.69963 14.6406 3.00063V10.6406H3.00063C1.69963 10.6406 0.640625 11.6996 0.640625 13.0006V23.0016C0.640625 24.3036 1.69963 25.3616 3.00063 25.3616H6.80763L10.7016 31.2006L11.2996 30.8006Z" fill="#282C32"/>
</g>
<defs>
<clipPath id="clip0_229_333">
<rect width="32" height="32" fill="white"/>
</clipPath>
</defs>
</svg>
