<svg width="32" height="32" viewBox="0 0 32 32" fill="none" xmlns="http://www.w3.org/2000/svg">
<rect width="32" height="32" fill="white" fill-opacity="0.01"/>
<path d="M29.0006 31.3606H3.00062C2.80162 31.3606 2.64062 31.1996 2.64062 31.0006V24.0006C2.64062 23.9046 2.67862 23.8126 2.74562 23.7456L19.1316 7.36063H3.00062V6.64062H20.0006C20.1466 6.64062 20.2776 6.72763 20.3336 6.86263C20.3896 6.99663 20.3576 7.15163 20.2556 7.25463L3.36062 24.1496V30.6396H29.0006V31.3606ZM29.0006 25.3606H11.0006C10.8546 25.3606 10.7236 25.2726 10.6676 25.1376C10.6116 25.0026 10.6426 24.8486 10.7456 24.7446L27.6406 7.85162V1.36063H3.00062V0.640625H28.0006C28.1996 0.640625 28.3606 0.801625 28.3606 1.00063V8.00063C28.3606 8.09663 28.3226 8.18762 28.2556 8.25462L11.8696 24.6406H29.0006V25.3606Z" fill="black"/>
</svg>
