<svg width="32" height="32" viewBox="0 0 32 32" fill="none" xmlns="http://www.w3.org/2000/svg">
<rect width="32" height="32" fill="white" fill-opacity="0.01"/>
<path d="M29.9996 28.3606H1.99965C1.80065 28.3606 1.63965 28.1996 1.63965 28.0006V4.00062C1.63965 3.80162 1.80065 3.64062 1.99965 3.64062H29.9996C30.1986 3.64062 30.3596 3.80162 30.3596 4.00062V28.0006C30.3596 28.1996 30.1986 28.3606 29.9996 28.3606ZM2.35965 27.6406H29.6396V22.3606H2.35965V27.6406ZM2.35965 21.6406H29.6396V16.3606H2.35965V21.6406ZM2.35965 15.6406H29.6396V10.3606H2.35965V15.6406ZM2.35965 9.64062H29.6396V4.36063H2.35965V9.64062ZM26.9996 26.3606C26.2496 26.3606 25.6396 25.7506 25.6396 25.0006C25.6396 24.2506 26.2496 23.6406 26.9996 23.6406C27.7496 23.6406 28.3596 24.2506 28.3596 25.0006C28.3596 25.7506 27.7496 26.3606 26.9996 26.3606ZM26.9996 24.3606C26.6466 24.3606 26.3596 24.6476 26.3596 25.0006C26.3596 25.3536 26.6466 25.6406 26.9996 25.6406C27.3526 25.6406 27.6396 25.3536 27.6396 25.0006C27.6396 24.6476 27.3526 24.3606 26.9996 24.3606ZM26.9996 20.3606C26.2496 20.3606 25.6396 19.7506 25.6396 19.0006C25.6396 18.2506 26.2496 17.6406 26.9996 17.6406C27.7496 17.6406 28.3596 18.2506 28.3596 19.0006C28.3596 19.7506 27.7496 20.3606 26.9996 20.3606ZM26.9996 18.3606C26.6466 18.3606 26.3596 18.6476 26.3596 19.0006C26.3596 19.3536 26.6466 19.6406 26.9996 19.6406C27.3526 19.6406 27.6396 19.3536 27.6396 19.0006C27.6396 18.6476 27.3526 18.3606 26.9996 18.3606ZM26.9996 14.3606C26.2496 14.3606 25.6396 13.7506 25.6396 13.0006C25.6396 12.2506 26.2496 11.6406 26.9996 11.6406C27.7496 11.6406 28.3596 12.2506 28.3596 13.0006C28.3596 13.7506 27.7496 14.3606 26.9996 14.3606ZM26.9996 12.3606C26.6466 12.3606 26.3596 12.6476 26.3596 13.0006C26.3596 13.3536 26.6466 13.6406 26.9996 13.6406C27.3526 13.6406 27.6396 13.3536 27.6396 13.0006C27.6396 12.6476 27.3526 12.3606 26.9996 12.3606ZM26.9996 8.36062C26.2496 8.36062 25.6396 7.75062 25.6396 7.00062C25.6396 6.25062 26.2496 5.64062 26.9996 5.64062C27.7496 5.64062 28.3596 6.25062 28.3596 7.00062C28.3596 7.75062 27.7496 8.36062 26.9996 8.36062ZM26.9996 6.36063C26.6466 6.36063 26.3596 6.64762 26.3596 7.00062C26.3596 7.35362 26.6466 7.64062 26.9996 7.64062C27.3526 7.64062 27.6396 7.35362 27.6396 7.00062C27.6396 6.64762 27.3526 6.36063 26.9996 6.36063Z" fill="black"/>
</svg>
