<svg width="32" height="32" viewBox="0 0 32 32" fill="none" xmlns="http://www.w3.org/2000/svg">
<g clip-path="url(#clip0_229_303)">
<rect width="32" height="32" fill="white" fill-opacity="0.01"/>
<path d="M15.9996 31.3606C7.52965 31.3606 0.639648 24.4706 0.639648 16.0006C0.639648 10.9716 3.08665 6.28663 7.20165 3.40763C7.16165 3.27963 7.13965 3.14263 7.13965 3.00063C7.13965 2.25063 7.74965 1.64062 8.49965 1.64062C8.89465 1.64062 9.25065 1.80962 9.49965 2.07963C11.5386 1.12463 13.7236 0.640625 15.9996 0.640625C21.0286 0.640625 25.7136 3.08763 28.5926 7.20263C28.7216 7.16263 28.8576 7.14062 28.9996 7.14062C29.7496 7.14062 30.3596 7.75063 30.3596 8.50063C30.3596 8.89563 30.1896 9.25162 29.9206 9.50062C30.8756 11.5406 31.3596 13.7256 31.3596 16.0006C31.3596 21.0296 28.9116 25.7146 24.7976 28.5936C24.8376 28.7226 24.8596 28.8596 24.8596 29.0006C24.8596 29.7506 24.2496 30.3606 23.4996 30.3606C23.1036 30.3606 22.7476 30.1906 22.4996 29.9216C20.4596 30.8766 18.2746 31.3606 15.9996 31.3606ZM9.77265 29.2496C11.6636 30.1416 13.7736 30.6406 15.9996 30.6406C17.8656 30.6406 19.6676 30.2996 21.3726 29.6236C19.8856 29.3536 18.1316 28.3296 16.2916 26.6406C15.7886 26.9356 15.0586 26.8416 14.6476 26.4346L9.77265 29.2496ZM23.4996 28.3606C23.1466 28.3606 22.8596 28.6476 22.8596 29.0006C22.8596 29.3536 23.1466 29.6406 23.4996 29.6406C23.8526 29.6406 24.1396 29.3536 24.1396 29.0006C24.1396 28.6476 23.8526 28.3606 23.4996 28.3606ZM16.7946 26.1236C18.7966 27.9586 20.7066 28.9756 22.1356 28.9756C22.1366 28.9756 22.1386 28.9756 22.1406 28.9756C22.1536 28.2376 22.7586 27.6406 23.4996 27.6406C23.7396 27.6406 23.9666 27.7036 24.1626 27.8136C24.9916 26.4066 24.9486 23.8996 24.1686 20.9386L16.9196 25.1246C16.9486 25.2336 16.9636 25.3496 16.9636 25.4686C16.9636 25.7056 16.9026 25.9296 16.7946 26.1236ZM3.50765 23.6286C4.84865 25.8166 6.74865 27.6276 9.00665 28.8596L14.2876 25.8106C14.2586 25.7006 14.2436 25.5846 14.2436 25.4666C14.2436 25.2026 14.3186 24.9566 14.4496 24.7476C13.1076 23.2236 11.8096 21.4166 10.6726 19.4906L3.50765 23.6286ZM24.8146 20.5636C25.5716 23.3626 25.6986 25.8066 25.1106 27.4596C28.2726 24.9456 30.2506 21.2496 30.5886 17.2306L24.8146 20.5636ZM15.6036 24.8276C15.2506 24.8276 14.9636 25.1146 14.9636 25.4676C14.9636 25.8206 15.2506 26.1076 15.6036 26.1076C15.9566 26.1076 16.2436 25.8206 16.2436 25.4676C16.2436 25.1146 15.9566 24.8276 15.6036 24.8276ZM15.6036 24.1066C15.9756 24.1066 16.3126 24.2566 16.5586 24.4996L23.9686 20.2226C23.3406 18.1026 22.3576 15.7866 21.0626 13.4936L11.2966 19.1316C12.4066 21.0116 13.6716 22.7746 14.9786 24.2596C15.1656 24.1626 15.3786 24.1066 15.6036 24.1066ZM1.36465 15.6276C1.36065 15.7516 1.35965 15.8756 1.35965 16.0006C1.35965 18.5366 2.00765 20.9236 3.14765 23.0056L10.3136 18.8676C9.21265 16.9176 8.29765 14.8916 7.64865 12.9696C7.27165 12.9796 6.90465 12.8296 6.64865 12.5776L1.36465 15.6276ZM21.6866 13.1326C22.9836 15.4276 23.9696 17.7266 24.6116 19.8506L30.6356 16.3716C30.6386 16.2476 30.6396 16.1236 30.6396 15.9996C30.6396 13.8406 30.1826 11.7676 29.2806 9.83062C28.8396 9.92462 28.3496 9.77062 28.0416 9.46262L21.6866 13.1326ZM8.33665 12.7556C8.96965 14.6286 9.86265 16.6046 10.9366 18.5086L20.7026 12.8696C19.3636 10.6026 17.8486 8.59263 16.3276 6.98962L8.91965 11.2666C8.94865 11.3766 8.96365 11.4926 8.96365 11.6106C8.96365 12.0906 8.71365 12.5136 8.33665 12.7556ZM6.88565 4.54262C3.72565 7.05662 1.74865 10.7506 1.41165 14.7696L6.28765 11.9546C6.25865 11.8446 6.24365 11.7296 6.24365 11.6106C6.24365 11.1046 6.52065 10.6626 6.93165 10.4286C6.38865 7.99463 6.37765 5.96463 6.88565 4.54262ZM16.9706 6.61863C18.4896 8.23563 19.9876 10.2396 21.3256 12.5096L27.6816 8.83962C27.6546 8.73062 27.6396 8.61763 27.6396 8.50063C27.6396 8.15263 27.7716 7.83463 27.9876 7.59363C26.6686 5.71563 24.9546 4.20363 22.9986 3.13863L16.9706 6.61863ZM7.60365 10.9706C7.25065 10.9706 6.96365 11.2576 6.96365 11.6106C6.96365 11.9636 7.25065 12.2506 7.60365 12.2506C7.95665 12.2506 8.24365 11.9636 8.24365 11.6106C8.24365 11.2576 7.95665 10.9706 7.60365 10.9706ZM7.62965 10.2506C7.99065 10.2576 8.31865 10.4066 8.55865 10.6436L15.8086 6.45863C13.6376 4.30563 11.4606 3.01062 9.85965 3.02462C9.84665 3.76362 9.24165 4.36063 8.49965 4.36063C8.25965 4.36063 8.03365 4.29863 7.83765 4.18863C7.11665 5.42463 7.04065 7.59262 7.62965 10.2506ZM28.9996 7.86063C28.6466 7.86063 28.3596 8.14763 28.3596 8.50063C28.3596 8.85363 28.6466 9.14062 28.9996 9.14062C29.3526 9.14062 29.6396 8.85363 29.6396 8.50063C29.6396 8.14763 29.3526 7.86063 28.9996 7.86063ZM10.6236 2.37863C12.3516 2.69463 14.4066 4.02763 16.4546 6.08463L22.2296 2.75063C18.6726 1.07663 14.3276 0.911625 10.6236 2.37863ZM8.49965 2.36062C8.14665 2.36062 7.85965 2.64763 7.85965 3.00063C7.85965 3.35363 8.14665 3.64062 8.49965 3.64062C8.85265 3.64062 9.13965 3.35363 9.13965 3.00063C9.13965 2.64763 8.85265 2.36062 8.49965 2.36062Z" fill="#282C32"/>
</g>
<defs>
<clipPath id="clip0_229_303">
<rect width="32" height="32" fill="white"/>
</clipPath>
</defs>
</svg>
